<?xml version="1.0" encoding="utf-8"?>
<!-- Generator: Adobe Illustrator 16.0.2, SVG Export Plug-In . SVG Version: 6.00 Build 0)  -->
<!DOCTYPE svg PUBLIC "-//W3C//DTD SVG 1.1//EN" "http://www.w3.org/Graphics/SVG/1.1/DTD/svg11.dtd">
<svg version="1.1" id="Chains" xmlns="http://www.w3.org/2000/svg" xmlns:xlink="http://www.w3.org/1999/xlink" x="0px" y="0px"
	 width="43.2px" height="41.76px" viewBox="0 0 43.2 41.76" enable-background="new 0 0 43.2 41.76" xml:space="preserve">
<g>
	<path fill="#A9DCD6" d="M28.892,20.624c0-0.257-0.017-0.503-0.038-0.746c-1.278-0.563-2.487-1.228-3.539-2.112
		C21.498,14.552,19.17,5.915,15.22,2.589c-1.053-0.886-2.281-1.491-3.569-1.843c3.142,1.408,5.482,4.633,5.482,8.14
		c0,4.862-3.857,7.043-3.857,11.737c0,0.473,0.046,0.914,0.111,1.341c2.067,1.136,4.007,2.281,5.448,3.495
		c3.184,2.679,4.568,7.19,6.979,10.524c-0.496-1.12-0.779-2.347-0.779-3.623C25.035,27.667,28.892,25.486,28.892,20.624z"/>
	<path display="none" fill="#33BEBE" d="M41.492,25.849c0.79,1.466,1.662,2.861,2.073,4.552
		C43.272,28.774,42.579,27.188,41.492,25.849z"/>
	<path fill="#6EC7B1" d="M18.133,8.886c0-3.507-2.341-6.731-5.482-8.14C11.587,0.27,10.433,0,9.246,0
		C4.385,0,0.359,4.193,0.359,8.886c0,4.862,3.857,7.043,3.857,11.737c0,4.862-3.857,7.043-3.857,11.737
		c0,4.862,4.025,9.055,8.887,9.055c4.694,0,8.887-4.192,8.887-9.055c0-4.237-3.135-6.434-3.746-10.396
		c-0.065-0.427-0.111-0.868-0.111-1.341C14.275,15.929,18.133,13.749,18.133,8.886z M6.329,5.713c1.563-1.563,4.688-1.564,6.25,0
		c1.877,1.875,1.72,4.845,0.156,6.406c-1.876,1.876-4.688,1.877-6.563,0.001C4.608,10.558,4.453,7.588,6.329,5.713z M9.272,36.57
		c-2.651,0-4.641-1.989-4.641-4.642c0-2.211,1.989-4.421,4.641-4.421c2.211,0,4.42,2.21,4.42,4.421
		C13.692,34.581,11.483,36.57,9.272,36.57z"/>
	<path fill="#6EC7B1" d="M40.492,25.849c-0.819-1.521-1.542-3.122-1.542-5.226c0-4.694,3.858-6.875,3.858-11.737
		C42.809,4.193,38.615,0,33.921,0c-4.862,0-8.886,4.192-8.886,8.886c0,4.597,3.441,6.8,3.818,10.991
		c0.021,0.243,0.038,0.489,0.038,0.746c0,4.862-3.856,7.043-3.856,11.737c0,1.276,0.283,2.503,0.779,3.623
		c1.396,3.147,4.521,5.432,8.106,5.432c4.694,0,8.888-4.192,8.888-9.055c0-0.706-0.095-1.35-0.243-1.96
		C42.154,28.71,41.282,27.315,40.492,25.849z M29.306,31.928c0-2.211,1.99-4.421,4.643-4.421c2.21,0,4.42,2.21,4.42,4.421
		c0,2.652-2.21,4.642-4.42,4.642C31.296,36.57,29.306,34.581,29.306,31.928z M33.948,4.44c2.21,0,4.42,2.21,4.42,4.42
		c0,2.653-2.21,4.643-4.42,4.643c-2.652,0-4.643-1.989-4.643-4.643C29.306,6.65,31.296,4.44,33.948,4.44z"/>
</g>
<g display="none">
	<path display="inline" fill="#75CCD1" d="M809.638,19.779c0-0.257-0.017-0.503-0.038-0.746c-1.278-0.563-2.487-1.228-3.539-2.113
		c-3.816-3.212-6.145-11.85-10.095-15.175c-1.053-0.886-2.281-1.492-3.569-1.843c3.142,1.408,5.482,4.633,5.482,8.14
		c0,4.863-3.857,7.043-3.857,11.737c0,0.473,0.046,0.914,0.111,1.341c2.067,1.136,4.007,2.281,5.448,3.495
		c3.184,2.679,4.568,7.191,6.979,10.525c-0.496-1.121-0.779-2.347-0.779-3.624C805.781,26.822,809.638,24.642,809.638,19.779z"/>
	<path display="inline" fill="#33BEBE" d="M821.238,25.005c0.79,1.465,1.662,2.861,2.073,4.552
		C823.019,27.93,822.325,26.343,821.238,25.005z"/>
	<path display="inline" fill="#33BEBE" d="M797.879,8.042c0-3.506-2.341-6.731-5.482-8.14c-1.063-0.477-2.218-0.746-3.404-0.746
		c-4.861,0-8.887,4.192-8.887,8.886c0,4.863,3.857,7.043,3.857,11.737c0,4.863-3.857,7.043-3.857,11.737
		c0,4.863,4.025,9.055,8.887,9.055c4.694,0,8.887-4.192,8.887-9.055c0-4.237-3.135-6.433-3.746-10.396
		c-0.065-0.427-0.111-0.868-0.111-1.341C794.021,15.084,797.879,12.904,797.879,8.042z M786.074,4.869
		c1.563-1.563,4.688-1.564,6.25,0c1.878,1.875,1.721,4.845,0.157,6.407c-1.876,1.875-4.688,1.876-6.563,0.001
		C784.354,9.713,784.199,6.744,786.074,4.869z M789.019,35.726c-2.651,0-4.642-1.989-4.642-4.642c0-2.211,1.99-4.42,4.642-4.42
		c2.21,0,4.42,2.209,4.42,4.42C793.438,33.736,791.229,35.726,789.019,35.726z"/>
	<path display="inline" fill="#33BEBE" d="M821.238,25.005c-0.819-1.521-1.542-3.123-1.542-5.226c0-4.694,3.858-6.875,3.858-11.737
		c0-4.693-4.193-8.886-8.888-8.886c-4.862,0-8.886,4.192-8.886,8.886c0,4.597,3.441,6.8,3.818,10.992
		c0.021,0.243,0.038,0.489,0.038,0.746c0,4.863-3.856,7.043-3.856,11.737c0,1.276,0.283,2.503,0.779,3.624
		c1.396,3.147,4.521,5.432,8.106,5.432c4.694,0,8.888-4.192,8.888-9.055c0-0.706-0.095-1.349-0.243-1.959
		C822.9,27.866,822.028,26.47,821.238,25.005z M810.052,31.083c0-2.211,1.99-4.42,4.643-4.42c2.21,0,4.42,2.209,4.42,4.42
		c0,2.653-2.21,4.642-4.42,4.642C812.042,35.726,810.052,33.736,810.052,31.083z M814.694,3.596c2.21,0,4.42,2.209,4.42,4.419
		c0,2.654-2.21,4.643-4.42,4.643c-2.652,0-4.643-1.989-4.643-4.643C810.052,5.805,812.042,3.596,814.694,3.596z"/>
</g>
<g display="none">
	<path display="inline" fill="#75CCD1" d="M228.543,21.676c0-0.233-0.015-0.457-0.034-0.678c-1.162-0.512-2.261-1.116-3.217-1.92
		c-3.468-2.919-5.584-10.769-9.174-13.791c-0.956-0.805-2.073-1.355-3.243-1.675c2.854,1.28,4.982,4.21,4.982,7.397
		c0,4.419-3.506,6.4-3.506,10.667c0,0.43,0.042,0.831,0.102,1.219c1.878,1.032,3.641,2.073,4.951,3.176
		c2.893,2.435,4.151,6.535,6.343,9.565c-0.451-1.019-0.709-2.133-0.709-3.293C225.038,28.076,228.543,26.095,228.543,21.676z"/>
	<path display="inline" fill="#33BEBE" d="M239.085,26.425c0.719,1.332,1.511,2.6,1.885,4.137
		C240.703,29.083,240.073,27.641,239.085,26.425z"/>
	<path display="inline" fill="#33BEBE" d="M217.857,11.009c0-3.187-2.128-6.117-4.982-7.397c-0.967-0.433-2.016-0.678-3.094-0.678
		c-4.418,0-8.076,3.81-8.076,8.075c0,4.419,3.506,6.4,3.506,10.667c0,4.419-3.506,6.4-3.506,10.667c0,4.419,3.658,8.229,8.076,8.229
		c4.266,0,8.076-3.81,8.076-8.229c0-3.851-2.85-5.846-3.404-9.448c-0.06-0.388-0.102-0.789-0.102-1.219
		C214.352,17.41,217.857,15.428,217.857,11.009z M207.129,8.126c1.421-1.42,4.26-1.421,5.681,0c1.706,1.704,1.563,4.402,0.143,5.822
		c-1.705,1.704-4.261,1.705-5.965,0C205.565,12.528,205.426,9.83,207.129,8.126z M209.805,36.167c-2.409,0-4.218-1.808-4.218-4.218
		c0-2.009,1.809-4.017,4.218-4.017c2.009,0,4.017,2.008,4.017,4.017C213.821,34.36,211.813,36.167,209.805,36.167z"/>
	<path display="inline" fill="#33BEBE" d="M239.085,26.425c-0.744-1.382-1.401-2.837-1.401-4.749c0-4.266,3.507-6.248,3.507-10.667
		c0-4.265-3.811-8.075-8.077-8.075c-4.418,0-8.075,3.81-8.075,8.075c0,4.177,3.128,6.179,3.471,9.989
		c0.02,0.221,0.034,0.444,0.034,0.678c0,4.419-3.505,6.4-3.505,10.667c0,1.16,0.258,2.274,0.709,3.293
		c1.269,2.86,4.107,4.936,7.366,4.936c4.267,0,8.077-3.81,8.077-8.229c0-0.641-0.086-1.226-0.221-1.781
		C240.596,29.025,239.804,27.757,239.085,26.425z M228.919,31.949c0-2.009,1.81-4.017,4.22-4.017c2.008,0,4.017,2.008,4.017,4.017
		c0,2.411-2.009,4.218-4.017,4.218C230.729,36.167,228.919,34.36,228.919,31.949z M233.139,6.969c2.008,0,4.017,2.008,4.017,4.017
		c0,2.412-2.009,4.219-4.017,4.219c-2.41,0-4.22-1.808-4.22-4.219C228.919,8.977,230.729,6.969,233.139,6.969z"/>
</g>
<g display="none">
	<path display="inline" fill="#75CCD1" d="M609.104,24.104c0-0.264-0.017-0.516-0.039-0.765c-1.313-0.578-2.554-1.261-3.633-2.169
		c-3.917-3.298-6.308-12.165-10.363-15.578c-1.079-0.909-2.342-1.531-3.663-1.892c3.225,1.446,5.628,4.756,5.628,8.355
		c0,4.992-3.96,7.229-3.96,12.048c0,0.485,0.048,0.938,0.114,1.377c2.122,1.166,4.112,2.342,5.593,3.587
		c3.268,2.75,4.689,7.382,7.165,10.804c-0.51-1.151-0.801-2.41-0.801-3.72C605.146,31.334,609.104,29.096,609.104,24.104z"/>
	<path display="inline" fill="#33BEBE" d="M621.013,29.469c0.812,1.504,1.706,2.937,2.129,4.672
		C622.84,32.471,622.129,30.842,621.013,29.469z"/>
	<path display="inline" fill="#33BEBE" d="M597.034,12.056c0-3.6-2.403-6.91-5.628-8.355c-1.092-0.489-2.276-0.766-3.494-0.766
		c-4.991,0-9.123,4.304-9.123,9.122c0,4.992,3.96,7.229,3.96,12.048c0,4.992-3.96,7.23-3.96,12.049c0,4.992,4.132,9.295,9.123,9.295
		c4.818,0,9.122-4.304,9.122-9.295c0-4.35-3.219-6.604-3.846-10.672c-0.066-0.438-0.114-0.892-0.114-1.377
		C593.074,19.285,597.034,17.047,597.034,12.056z M584.916,8.799c1.604-1.604,4.812-1.605,6.416,0
		c1.928,1.925,1.767,4.973,0.161,6.577c-1.926,1.925-4.813,1.926-6.737,0C583.149,13.771,582.992,10.724,584.916,8.799z
		 M587.938,40.474c-2.722,0-4.765-2.042-4.765-4.765c0-2.27,2.043-4.538,4.765-4.538c2.269,0,4.537,2.268,4.537,4.538
		C592.476,38.432,590.207,40.474,587.938,40.474z"/>
	<path display="inline" fill="#33BEBE" d="M621.013,29.469c-0.841-1.561-1.583-3.205-1.583-5.365c0-4.819,3.961-7.057,3.961-12.048
		c0-4.818-4.305-9.122-9.124-9.122c-4.99,0-9.121,4.304-9.121,9.122c0,4.718,3.533,6.98,3.92,11.283
		c0.022,0.249,0.039,0.501,0.039,0.765c0,4.992-3.959,7.23-3.959,12.049c0,1.31,0.291,2.569,0.801,3.72
		c1.433,3.231,4.64,5.576,8.32,5.576c4.819,0,9.124-4.304,9.124-9.295c0-0.724-0.097-1.385-0.249-2.012
		C622.719,32.406,621.824,30.973,621.013,29.469z M609.529,35.709c0-2.27,2.044-4.538,4.767-4.538c2.268,0,4.537,2.268,4.537,4.538
		c0,2.723-2.27,4.765-4.537,4.765C611.573,40.474,609.529,38.432,609.529,35.709z M614.296,7.492c2.268,0,4.537,2.269,4.537,4.537
		c0,2.724-2.27,4.766-4.537,4.766c-2.723,0-4.767-2.042-4.767-4.766C609.529,9.76,611.573,7.492,614.296,7.492z"/>
</g>
<g display="none">
</g>
</svg>
